<svg xmlns="http://www.w3.org/2000/svg" viewBox="0 0 900 1100">
  <path d="M176 276 292 188h316l116 88 82 244-124 48-54-152 30 522H242l30-522-54 152-124-48 82-244Z" fill="rgba(255,255,255,0.02)" stroke="#fff8e8" stroke-width="18" stroke-linejoin="round"/>
  <path d="M292 188c28 72 82 112 158 112s130-40 158-112" fill="none" stroke="#1e1714" stroke-width="34" stroke-linecap="round"/>
  <path d="M292 188c28 72 82 112 158 112s130-40 158-112" fill="none" stroke="#e0b84f" stroke-width="16" stroke-linecap="round"/>
  <path d="M450 428 540 580l-64 16 94 168-120-102-120 102 94-168-64-16 90-152Z" fill="#e0b84f" stroke="#1e1714" stroke-width="14" stroke-linejoin="round"/>
  <path d="M266 826h368" stroke="#1e1714" stroke-width="26" stroke-linecap="round"/>
  <path d="M266 826h368" stroke="#e0b84f" stroke-width="10" stroke-linecap="round"/>
</svg>
