<svg xmlns="http://www.w3.org/2000/svg" viewBox="0 0 900 1100">
  <path d="M176 276 292 188h316l116 88 82 244-124 48-54-152 30 522H242l30-522-54 152-124-48 82-244Z" fill="rgba(255,255,255,0.02)" stroke="#f6fff0" stroke-width="18" stroke-linejoin="round"/>
  <path d="M292 188c28 72 82 112 158 112s130-40 158-112" fill="none" stroke="#172018" stroke-width="34" stroke-linecap="round"/>
  <path d="M292 188c28 72 82 112 158 112s130-40 158-112" fill="none" stroke="#8ccf84" stroke-width="16" stroke-linecap="round"/>
  <path d="M318 642c54-86 182-86 248 0 28 36 22 88-34 106-64 20-148 20-210 0-48-16-58-64-4-106Z" fill="#dbeeb1" stroke="#172018" stroke-width="14" stroke-linejoin="round"/>
  <path d="M390 606c-42-66-18-108 28-140M510 606c42-66 18-108-28-140" fill="none" stroke="#172018" stroke-width="16" stroke-linecap="round"/>
  <path d="M276 832h348" stroke="#172018" stroke-width="26" stroke-linecap="round"/>
  <path d="M276 832h348" stroke="#8ccf84" stroke-width="10" stroke-linecap="round"/>
</svg>
