<svg xmlns="http://www.w3.org/2000/svg" viewBox="0 0 900 1100">
  <path d="M176 276 292 188h316l116 88 82 244-124 48-54-152 30 522H242l30-522-54 152-124-48 82-244Z" fill="rgba(255,255,255,0.02)" stroke="#fff4d6" stroke-width="18" stroke-linejoin="round"/>
  <path d="M292 188c28 72 82 112 158 112s130-40 158-112" fill="none" stroke="#1f1712" stroke-width="34" stroke-linecap="round"/>
  <path d="M292 188c28 72 82 112 158 112s130-40 158-112" fill="none" stroke="#f4d371" stroke-width="16" stroke-linecap="round"/>
  <path d="M254 560h392M242 724h416" stroke="#1f1712" stroke-width="26" stroke-linecap="round" opacity=".78"/>
  <path d="M254 560h392M242 724h416" stroke="#f4d371" stroke-width="10" stroke-linecap="round"/>
  <g fill="#f4d371" stroke="#1f1712" stroke-width="10">
    <circle cx="356" cy="646" r="34"/>
    <circle cx="450" cy="646" r="34"/>
    <circle cx="544" cy="646" r="34"/>
  </g>
</svg>
