<svg xmlns="http://www.w3.org/2000/svg" viewBox="0 0 900 1100">
  <path d="M176 276 292 188h316l116 88 82 244-124 48-54-152 30 522H242l30-522-54 152-124-48 82-244Z" fill="rgba(255,255,255,0.02)" stroke="#fff2df" stroke-width="18" stroke-linejoin="round"/>
  <path d="M292 188c28 72 82 112 158 112s130-40 158-112" fill="none" stroke="#201712" stroke-width="34" stroke-linecap="round"/>
  <path d="M292 188c28 72 82 112 158 112s130-40 158-112" fill="none" stroke="#d86a43" stroke-width="16" stroke-linecap="round"/>
  <g fill="#e8c268" stroke="#201712" stroke-width="14" stroke-linejoin="round">
    <circle cx="450" cy="508" r="42"/>
    <path d="M398 574h104v174H398z"/>
    <path d="M398 622 304 690M502 622l94 68M410 748l-52 96M490 748l52 96" fill="none" stroke-linecap="round"/>
  </g>
  <path d="M260 886h380" stroke="#201712" stroke-width="26" stroke-linecap="round"/>
  <path d="M260 886h380" stroke="#d86a43" stroke-width="10" stroke-linecap="round"/>
</svg>
